HIERARCHY
ROOT Hips
{
  OFFSET 116.165 89.6473 -37.9676
  CHANNELS 6 Xposition Yposition Zposition Zrotation Xrotation Yrotation
  JOINT ToSpine
  {
    OFFSET -2.69724 7.43032 -0.144315
    CHANNELS 3 Zrotation Xrotation Yrotation
    JOINT Spine
    {
      OFFSET -0.0310711 10.7595 1.96963
      CHANNELS 3 Zrotation Xrotation Yrotation
      JOINT Spine1
      {
        OFFSET 13.1342 3.43533 0.764692
        CHANNELS 3 Zrotation Xrotation Yrotation
        JOINT Neck
        {
          OFFSET 29.8703 7.82586 -0.130764
          CHANNELS 3 Zrotation Xrotation Yrotation
          JOINT Head
          {
            OFFSET 9.52751 0.295786 -0.907742
            CHANNELS 3 Zrotation Xrotation Yrotation
            End Site
            {
              OFFSET 16.4037 0.713936 2.7358
            }
          }
        }
        JOINT LeftShoulder
        {
          OFFSET 27.5574 4.95586 2.47156
          CHANNELS 3 Zrotation Xrotation Yrotation
          JOINT LeftArm
          {
            OFFSET 1.20734 -0.998971 20.1238
            CHANNELS 3 Zrotation Xrotation Yrotation
            JOINT LeftForeArm
            {
              OFFSET 26.8049 -0.0536703 -0.155908
              CHANNELS 3 Zrotation Xrotation Yrotation
              JOINT LeftHand
              {
                OFFSET 26.6817 0 0.320147
                CHANNELS 3 Zrotation Xrotation Yrotation
                End Site
                {
                  OFFSET 18.6119 0 0.382219
                }
              }
            }
          }
        }
        JOINT RightShoulder
        {
          OFFSET 27.5927 4.71444 -2.65209
          CHANNELS 3 Zrotation Xrotation Yrotation
          JOINT RightArm
          {
            OFFSET 2.83739 -1.17114 -18.7564
            CHANNELS 3 Zrotation Xrotation Yrotation
            JOINT RightForeArm
            {
              OFFSET 28.839 -0.0548439 1.22491
              CHANNELS 3 Zrotation Xrotation Yrotation
              JOINT RightHand
              {
                OFFSET 26.5114 0 -0.101894
                CHANNELS 3 Zrotation Xrotation Yrotation
                End Site
                {
                  OFFSET 18.2168 0 0
                }
              }
            }
          }
        }
      }
    }
  }
  JOINT LeftUpLeg
  {
    OFFSET -4.76168 -1.9167 -10.2353
    CHANNELS 3 Zrotation Xrotation Yrotation
    JOINT LeftLeg
    {
      OFFSET 2.55951 -42.0585 -8.02213
      CHANNELS 3 Zrotation Xrotation Yrotation
      JOINT LeftFoot
      {
        OFFSET 3.16357 -42.5282 -3.95426
        CHANNELS 3 Zrotation Xrotation Yrotation
        JOINT LeftToeBase
        {
          OFFSET 0.346054 -6.02161 12.8035
          CHANNELS 3 Zrotation Xrotation Yrotation
          End Site
          {
            OFFSET 0.134235 -1.35082 5.13018
          }
        }
      }
    }
  }
  JOINT RightUpLeg
  {
    OFFSET -4.94151 -1.41743 10.6446
    CHANNELS 3 Zrotation Xrotation Yrotation
    JOINT RightLeg
    {
      OFFSET -2.56294 -42.0364 -7.94377
      CHANNELS 3 Zrotation Xrotation Yrotation
      JOINT RightFoot
      {
        OFFSET -3.0952 -42.555 -4.02241
        CHANNELS 3 Zrotation Xrotation Yrotation
        JOINT RightToeBase
        {
          OFFSET -0.0828122 -6.13587 12.8035
          CHANNELS 3 Zrotation Xrotation Yrotation
          End Site
          {
            OFFSET -0.131328 -1.35082 5.13018
          }
        }
      }
    }
  }
}
MOTION
Frames:	18
Frame Time:	0.0333333
121.354 94.6853 -40.8302 63.9058 -43.2249 -20.2977 -70.1915 0 88.8779 61.8994 71.4217 20.8551 5.60468 22.0963 2.91059 -121.713 29.521 162.117 176.377 71.9432 -147.461 0.698198 -13.8832 -18.8584 -63.7885 36.0972 -144.868 24.0137 -1.94346 -93.6398 0.420957 0.000575981 0.35866 -1.31749 6.85556 33.6885 -120.421 -18.4398 87.9949 8.75952 -2.72099 72.8644 0.58676 0.000330313 0.0646654 -55.7854 8.29372 98.1927 -1.57918 32.9945 -2.48572 2.62534 -13.4172 -1.18564 5.54114 -11.6144 -1.57022 -38.4314 -18.7859 75.2233 2.39919 28.1619 -14.5686 -12.0751 7.88476 1.92249 -0.222895 -10.8599 21.6921 
121.683 94.6759 -40.8374 61.1062 -46.4903 -24.0654 -70.1915 0 88.8779 61.639 71.0789 20.8902 4.29825 21.5754 3.81415 -123.255 29.2456 165.7 178.346 70.704 -149.265 0.69927 -13.8636 -18.8817 -70.2263 35.0668 -143.482 22.2963 -0.768624 -91.173 0.420957 0.000575981 0.35866 -1.38347 6.93811 34.3973 -113.494 -20.4827 86.1123 10.659 -2.23875 78.1784 0.58676 0.000330313 0.0646654 -56.8429 7.92004 100.769 -1.26799 32.2044 0.379848 -0.730364 -15.1059 -1.29957 4.6569 -8.80373 -5.6507 -35.2028 -20.2661 71.4697 2.01213 30.8849 -5.91448 -11.9836 9.29509 1.94074 0.0539902 -11.4703 20.5587 
122.101 94.495 -40.6604 58.4225 -50.5158 -28.4841 -70.1915 0 88.8779 60.9348 70.6138 20.3651 4.34807 20.6478 5.40625 -127.389 29.2932 170.786 177.928 69.2519 -149.433 0.807593 -13.0423 -17.682 -77.2028 35.5215 -144.34 18.7389 0.35223 -88.278 0.420957 0.000575981 0.35866 -1.37756 6.88087 34.4942 -105.564 -24.3081 84.8183 14.3065 -1.78414 82.8781 0.58676 0.000330313 0.0646654 -59.0551 6.60626 102.644 -1.1944 30.8098 3.16832 -1.32897 -15.1491 -1.30647 4.69007 -9.02784 -5.03204 -31.152 -21.2931 70.7443 1.42102 35.6196 0.260779 -11.1412 10.0484 1.77882 0.796587 -13.0535 15.9394 
122.635 94.1717 -40.1477 55.0664 -54.6497 -33.6883 -70.1915 0 88.8779 59.4628 69.5895 20.4326 4.58955 19.2813 7.1041 -130.634 27.8903 175.874 -177.425 67.0124 -153.878 0.825926 -12.9519 -17.2472 -85.664 34.9214 -144.245 17.6443 1.11134 -85.8437 0.420957 0.000575981 0.35866 -1.27089 6.45519 34.2855 -98.408 -29.7306 83.3326 19.1879 -1.6877 84.9751 0.58676 0.000330313 0.0646654 -61.5462 4.89325 103.658 -1.47112 29.2273 6.98216 -0.061373 -14.5399 -1.24965 5.19627 -10.6149 -2.994 -27.0225 -22.0925 71.0781 1.53756 40.4808 -1.21323 -13.0642 8.1441 2.12635 0.783773 -12.9636 15.7122 
123.196 93.9602 -39.0585 51.738 -57.6876 -38.0153 -70.1915 0 88.8779 57.0351 67.6475 21.0343 5.30662 16.9907 9.61604 -133.342 26.3357 179.244 -171.657 65.0917 -160.213 0.893573 -12.4684 -15.8179 -91.925 36.153 -147.085 17.6525 2.42305 -81.7931 0.420957 0.000575981 0.35866 -1.28095 5.93805 36.34 -91.4423 -32.19 80.191 19.4124 -1.27094 86.2034 0.58676 0.000330313 0.0646654 -63.5621 3.5461 103.361 -1.53379 28.5949 7.86259 -1.91736 -12.9461 -1.09102 6.25217 -13.5333 1.92458 -25.5434 -23.1832 67.232 0.822612 41.629 -6.86079 -18.6918 5.57181 3.0372 0.120978 -9.24227 11.7862 
123.673 93.7108 -37.5893 48.9128 -60.5534 -41.5384 -70.1915 0 88.8779 55.2925 65.6561 20.6972 6.9729 14.3619 13.1152 -137.744 25.1337 -174.641 -171.403 63.0871 -161.535 0.93744 -12.0326 -14.9161 -98.2696 36.2014 -149.902 16.7807 3.6088 -77.6014 0.420957 0.000575981 0.35866 -0.984812 5.14216 34.266 -88.2927 -37.7746 75.2193 22.4158 -1.58997 85.9551 0.58676 0.000330313 0.0646654 -65.8837 3.18415 103.816 -1.49734 28.5971 6.99767 -1.98262 -10.8903 -0.886832 7.95147 -16.967 5.65604 -26.3883 -25.1888 58.997 -0.722065 41.6695 -16.8194 -22.7181 4.24023 3.60129 -1.88971 -3.28216 16.3943 
123.992 93.2963 -35.8401 43.4405 -64.0327 -48.0812 -70.1915 0 88.8779 55.5952 63.5315 19.9331 7.68257 12.2902 13.2915 -140.143 22.225 -172.307 -168.082 60.038 -165.932 1.04105 -10.9525 -8.98331 -103.157 39.3528 -151.325 16.1408 5.48897 -71.1469 0.420957 0.000575981 0.35866 -0.920661 4.47758 35.9991 -85.3097 -38.9532 69.9215 20.8232 -1.56831 85.6904 0.58676 0.000330313 0.0646654 -67.6163 3.54759 106.683 -1.46266 30.5634 7.32392 -2.61376 -11.2443 -0.902634 7.80512 -16.6584 4.24492 -27.8165 -24.7112 53.0358 -0.946611 40.5617 -17.9924 -23.1439 5.12495 3.78027 -0.556792 -8.78486 18.0524 
123.836 92.7793 -33.5937 33.274 -68.1502 -60.0314 -70.1915 0 88.8779 52.2696 61.35 21.1866 9.62886 10.5283 15.2926 -142.506 19.3508 -167.646 -166.976 56.7463 -167.834 1.03693 -9.9906 -3.48687 -109.394 39.2485 -147.38 15.4311 7.58081 -63.9377 0.420957 0.000575981 0.35866 -0.933062 4.41978 36.5635 -82.5556 -38.7971 65.0538 20.0185 -1.66658 85.2422 0.58676 0.000330313 0.0646654 -69.1871 3.99121 111.142 -0.623396 34.2061 7.06719 -2.84726 -8.76926 -0.633632 9.122 -19.1243 1.62553 -28.332 -21.7911 51.8262 -1.26693 39.7253 -19.8983 -25.8463 0.204975 3.54277 -0.540312 -9.06681 18.773 
123.454 92.5314 -31.0376 14.1724 -73.0878 -80.3505 -70.1915 0 88.8779 52.7642 59.8328 20.9129 11.6769 9.28543 15.9978 -144.385 15.9513 -161.587 -166.232 52.8092 -169.107 1.00264 -9.66588 0.930984 -114.714 34.1144 -137.789 12.4355 8.20988 -56.6304 0.420957 0.000575981 0.35866 -0.79599 4.17957 34.7243 -78.0427 -39.0355 64.0955 24.1406 -2.23492 84.8347 0.58676 0.000330313 0.0646654 -70.9643 6.39859 114.49 -1.46555 41.9188 3.81236 -4.48095 -1.85887 0.27141 11.6686 -23.7397 3.48446 -31.0016 -15.9661 54.522 -1.24566 38.2898 -19.6773 -24.5539 -4.73757 2.6999 -1.31952 -5.30029 16.162 
122.786 92.4983 -28.2838 -13.9427 -75.1661 -109.904 -70.1915 0 88.8779 52.038 57.6604 22.52 14.8509 8.51706 14.9159 -145.786 12.9791 -155.717 -166.839 49.462 -168.009 0.994332 -9.69969 3.52036 -112.085 22.6065 -129.379 10.0094 9.10836 -47.7509 0.420957 0.000575981 0.35866 -0.580902 3.76569 31.5766 -72.4931 -39.0126 66.8179 22.5686 -2.05131 84.8877 0.58676 0.000330313 0.0646654 -70.2367 9.66267 114.588 -2.98735 53.6717 2.50414 -6.9709 7.34144 1.82331 8.15328 -17.0094 -7.44444 -34.7126 -10.2873 60.1461 -0.800442 36.7787 -16.7959 -18.9096 -10.2774 1.70762 -2.78519 3.52105 11.9409 
121.984 92.4669 -25.8543 -44.7935 -72.116 -143.566 -70.1915 0 88.8779 55.1127 58.2127 21.4515 13.4648 8.85944 12.6589 -145.888 10.461 -152.081 -164.767 46.4458 -168.49 0.788668 -7.74789 3.50987 -97.7823 7.47036 -125.45 6.76675 9.2641 -36.1671 0.420957 0.000575981 0.35866 -0.521888 4.29892 27.8762 -69.01 -40.1332 69.6836 24.104 -2.10289 85.1176 0.58676 0.000330313 0.0646654 -66.5637 11.5165 112.011 -9.1852 68.756 -1.30833 -16.2835 18.3022 6.03786 -3.68252 12.3609 -6.05823 -36.1598 -6.55715 66.394 -0.899235 38.5789 -17.6972 -27.7633 -10.1186 2.09565 -0.960732 -5.45161 13.5564 
122.067 92.9684 -24.1395 -65.5389 -64.3119 -169.04 -70.1915 0 88.8779 65.9987 62.2238 14.649 8.28701 11.7049 7.04462 -143.528 9.77172 -150.412 -161.83 44.8506 -166.852 1.02269 -9.92906 1.69838 -80.2401 -1.58847 -113.343 4.40653 7.9163 -29.1827 0.420957 0.000575981 0.35866 -0.825305 5.68491 29.3608 -67.5148 -35.8996 72.1057 22.8981 -2.24307 84.5164 0.58676 0.000330313 0.0646654 -61.3281 12.6606 109.899 -66.0537 84.4497 45.0904 -24.135 21.655 9.36367 -2.10804 7.1511 -4.33694 -38.4298 -4.69441 75.4473 -0.0367967 40.4408 -12.5269 -23.5758 -11.0455 1.79697 -1.54405 -0.803035 10.2461 
121.831 93.8459 -22.9881 -73.2423 -54.8257 178.015 -70.1915 0 88.8779 73.5254 65.9517 8.65399 5.53093 15.1642 3.73957 -142.952 9.34214 -147.893 -160.41 43.881 -166.078 1.0992 -11.6529 -4.25991 -78.8197 0.0433952 -100.712 2.8099 21.2021 -22.497 0.420957 0.000575981 0.35866 -0.942428 6.81013 28.1961 -65.2865 -34.2848 78.5257 21.8569 -2.51735 83.568 0.58676 0.000330313 0.0646654 -53.1951 16.4195 104.027 -157.05 74.6265 139.28 -22.3129 23.8235 9.34107 -3.29995 11.9017 -6.74373 -40.8939 -3.48291 83.1955 0.00643732 39.6853 -11.899 -24.6771 -10.6607 1.88842 -1.75854 -3.56071 15.9903 
121.476 94.3941 -22.0076 -73.5326 -46.2148 170.712 -70.1915 0 88.8779 77.9208 69.0994 5.34918 2.31551 19.2019 -1.01211 -142.165 9.35104 -147.276 -160.115 43.5261 -165.941 0.91323 -13.8564 -12.4068 -84.2446 -0.289405 -85.2165 2.27716 34.8493 -18.9788 0.420957 0.000575981 0.35866 -1.21377 7.62181 30.0981 -61.3436 -29.2966 86.4707 22.1595 -3.29838 81.7846 0.58676 0.000330313 0.0646654 -42.4833 20.2966 91.65 -164.256 64.4307 144.496 -20.3567 25.8115 9.15861 -4.05233 15.6096 -8.7028 -39.462 -4.24806 90.4603 0.118418 41.7133 -11.6007 -25.2954 -11.4304 1.79905 -1.6315 -6.06043 20.51 
122.407 94.7273 -21.2333 -73.0958 -37.6955 162.381 -70.1915 0 88.8779 91.0147 72.1822 -9.1195 -2.06297 23.7915 -4.57976 -143.502 8.67354 -146.252 -161.274 43.2139 -165.215 0.688828 -13.7065 -19.6785 -84.1966 -0.859036 -72.8998 2.64888 42.8514 -17.6224 0.420957 0.000575981 0.35866 -1.53062 8.89756 31.1275 -57.0752 -24.0288 96.1023 21.31 -4.4818 78.5168 0.58676 0.000330313 0.0646654 -33.5517 23.115 77.5138 -164.832 62.8464 144.532 -19.4734 27.031 9.13534 -4.32893 20.5332 -12.7215 -36.5542 -6.23213 99.6544 1.1725 44.625 -5.97348 -23.8778 -10.0514 1.93954 -0.441347 -6.95468 12.1344 
123.788 95.1528 -19.4281 -70.7888 -31.1757 155.784 -70.1915 0 88.8779 103.598 74.2376 -22.7353 -5.10248 28.4652 -7.86263 -143.975 8.93142 -145.619 -161.523 43.5856 -164.626 0.59795 -12.9715 -26.2248 -85.1537 1.21713 -63.3224 2.61611 44.9161 -16.1568 0.420957 0.000575981 0.35866 -1.65625 10.3579 29.5992 -56.1248 -22.5806 104.447 21.6229 -6.25638 74.4914 0.58676 0.000330313 0.0646654 -25.609 26.269 64.3646 -161.611 68.6567 138.924 -19.9489 27.0373 9.3165 -3.53069 21.4145 -15.6347 -31.7057 -9.38192 106.661 1.63919 47.1846 -4.48766 -21.6304 -11.1315 1.72145 -0.111593 -7.37134 9.86606 
125.137 95.9338 -16.7536 -67.4212 -26.0302 150.346 -70.1915 0 88.8779 118.426 75.7165 -37.3282 -7.35072 33.5512 -11.3026 -143.673 10.1614 -145.188 -162.093 44.6855 -163.889 0.328779 -13.4793 -32.3831 -86.8346 5.52546 -53.7908 2.52873 40.5033 -16.0575 0.420957 0.000575981 0.35866 -1.68219 11.382 28.1655 -55.933 -22.1684 111.224 21.4446 -7.82217 70.7705 0.58676 0.000330313 0.0646654 -18.6491 30.7969 55.2551 -143.819 79.7972 117.066 -25.1422 25.1351 10.7357 -5.54508 25.4009 -13.5769 -26.5011 -12.3399 113.402 1.92015 47.452 -2.85854 -18.4426 -10.7816 1.64619 0.915024 -10.819 5.69904 
125.923 97.2633 -13.6617 -65.795 -24.056 146.32 -70.1915 0 88.8779 128.677 75.2948 -46.1528 -7.72816 36.2546 -15.1634 -143.927 11.0497 -144.64 -162.419 45.5698 -163.946 0.207358 -13.5681 -35.5943 -89.4816 14.2352 -45.4992 2.38234 37.7401 -15.9424 0.420957 0.000575981 0.35866 -1.86457 12.7942 27.7671 -55.35 -21.0101 118.088 21.1357 -9.44758 66.8923 0.58676 0.000330313 0.0646654 -13.1154 34.138 48.7024 -24.3218 78.018 -4.60437 -23.5694 24.932 10.0993 -0.459998 25.0419 -26.212 -22.978 -17.3952 115.848 1.90266 45.8726 -1.84168 -17.6576 -11.394 1.57051 1.2544 -12.2181 4.08212 
